<mxfile host="app.diagrams.net" modified="2024-02-27T19:09:29.064Z" agent="Mozilla/5.0 (Macintosh; Intel Mac OS X 10.15; rv:123.0) Gecko/20100101 Firefox/123.0" etag="jhw51rT1Z7BU0lwEAv1I" version="23.1.7" type="github">
  <diagram name="Page-1" id="k_VqditTrJaTclaxuMrM">
    <mxGraphModel dx="1242" dy="732" grid="1" gridSize="10" guides="1" tooltips="1" connect="1" arrows="1" fold="1" page="1" pageScale="1" pageWidth="850" pageHeight="1100" math="0" shadow="0">
      <root>
        <mxCell id="0" />
        <mxCell id="1" parent="0" />
        <mxCell id="k2vN7xZGg0Ul05sA-hzY-3" value="" style="rounded=0;whiteSpace=wrap;html=1;" vertex="1" parent="1">
          <mxGeometry x="280" y="60" width="180" height="510" as="geometry" />
        </mxCell>
        <mxCell id="k2vN7xZGg0Ul05sA-hzY-24" style="edgeStyle=orthogonalEdgeStyle;rounded=0;orthogonalLoop=1;jettySize=auto;html=1;exitX=1;exitY=0.5;exitDx=0;exitDy=0;entryX=0;entryY=0.5;entryDx=0;entryDy=0;" edge="1" parent="1" source="k2vN7xZGg0Ul05sA-hzY-6" target="k2vN7xZGg0Ul05sA-hzY-21">
          <mxGeometry relative="1" as="geometry" />
        </mxCell>
        <mxCell id="k2vN7xZGg0Ul05sA-hzY-6" value="HTTP Headers" style="rounded=0;whiteSpace=wrap;html=1;fillColor=#f5f5f5;fontColor=#333333;strokeColor=#666666;glass=1;shadow=1;" vertex="1" parent="1">
          <mxGeometry x="290" y="70" width="160" height="60" as="geometry" />
        </mxCell>
        <mxCell id="k2vN7xZGg0Ul05sA-hzY-7" value="Multipart 1&lt;br&gt;&lt;br&gt;&lt;br&gt;&lt;br&gt;&lt;br&gt;&lt;br&gt;&lt;div&gt;&lt;br&gt;&lt;/div&gt;&lt;br&gt;&lt;div&gt;&lt;br&gt;&lt;/div&gt;&lt;div&gt;&lt;br&gt;&lt;/div&gt;" style="rounded=0;whiteSpace=wrap;html=1;fillColor=#dae8fc;strokeColor=#6c8ebf;glass=0;shadow=1;" vertex="1" parent="1">
          <mxGeometry x="290" y="170" width="160" height="160" as="geometry" />
        </mxCell>
        <mxCell id="k2vN7xZGg0Ul05sA-hzY-33" style="edgeStyle=orthogonalEdgeStyle;rounded=0;orthogonalLoop=1;jettySize=auto;html=1;exitX=1;exitY=0.5;exitDx=0;exitDy=0;entryX=0;entryY=0.5;entryDx=0;entryDy=0;" edge="1" parent="1" source="k2vN7xZGg0Ul05sA-hzY-8" target="k2vN7xZGg0Ul05sA-hzY-32">
          <mxGeometry relative="1" as="geometry" />
        </mxCell>
        <mxCell id="k2vN7xZGg0Ul05sA-hzY-8" value="Headers" style="rounded=0;whiteSpace=wrap;html=1;fillColor=#f5f5f5;fontColor=#333333;strokeColor=#666666;glass=1;" vertex="1" parent="1">
          <mxGeometry x="300" y="200" width="140" height="30" as="geometry" />
        </mxCell>
        <mxCell id="k2vN7xZGg0Ul05sA-hzY-35" style="edgeStyle=orthogonalEdgeStyle;rounded=0;orthogonalLoop=1;jettySize=auto;html=1;exitX=1;exitY=0.5;exitDx=0;exitDy=0;entryX=0;entryY=0.5;entryDx=0;entryDy=0;" edge="1" parent="1" source="k2vN7xZGg0Ul05sA-hzY-9" target="k2vN7xZGg0Ul05sA-hzY-34">
          <mxGeometry relative="1" as="geometry" />
        </mxCell>
        <mxCell id="k2vN7xZGg0Ul05sA-hzY-9" value="Body" style="rounded=0;whiteSpace=wrap;html=1;fillColor=#dae8fc;strokeColor=#6c8ebf;glass=1;shadow=0;" vertex="1" parent="1">
          <mxGeometry x="300" y="240" width="140" height="80" as="geometry" />
        </mxCell>
        <mxCell id="k2vN7xZGg0Ul05sA-hzY-27" style="edgeStyle=orthogonalEdgeStyle;rounded=0;orthogonalLoop=1;jettySize=auto;html=1;exitX=1;exitY=0.5;exitDx=0;exitDy=0;entryX=0;entryY=0.5;entryDx=0;entryDy=0;" edge="1" parent="1" source="k2vN7xZGg0Ul05sA-hzY-10" target="k2vN7xZGg0Ul05sA-hzY-26">
          <mxGeometry relative="1" as="geometry" />
        </mxCell>
        <mxCell id="k2vN7xZGg0Ul05sA-hzY-10" value="Boundary" style="rounded=0;whiteSpace=wrap;html=1;fillColor=#f8cecc;strokeColor=#b85450;glass=1;shadow=1;" vertex="1" parent="1">
          <mxGeometry x="290" y="340" width="160" height="20" as="geometry" />
        </mxCell>
        <mxCell id="k2vN7xZGg0Ul05sA-hzY-28" style="edgeStyle=orthogonalEdgeStyle;rounded=0;orthogonalLoop=1;jettySize=auto;html=1;exitX=1;exitY=0.5;exitDx=0;exitDy=0;entryX=0;entryY=0.5;entryDx=0;entryDy=0;" edge="1" parent="1" source="k2vN7xZGg0Ul05sA-hzY-14" target="k2vN7xZGg0Ul05sA-hzY-25">
          <mxGeometry relative="1" as="geometry" />
        </mxCell>
        <mxCell id="k2vN7xZGg0Ul05sA-hzY-14" value="Boundary" style="rounded=0;whiteSpace=wrap;html=1;fillColor=#f8cecc;strokeColor=#b85450;glass=1;shadow=1;" vertex="1" parent="1">
          <mxGeometry x="290" y="140" width="160" height="20" as="geometry" />
        </mxCell>
        <mxCell id="k2vN7xZGg0Ul05sA-hzY-30" style="edgeStyle=orthogonalEdgeStyle;rounded=0;orthogonalLoop=1;jettySize=auto;html=1;exitX=1;exitY=0.5;exitDx=0;exitDy=0;entryX=0;entryY=0.5;entryDx=0;entryDy=0;" edge="1" parent="1" source="k2vN7xZGg0Ul05sA-hzY-15" target="k2vN7xZGg0Ul05sA-hzY-29">
          <mxGeometry relative="1" as="geometry" />
        </mxCell>
        <mxCell id="k2vN7xZGg0Ul05sA-hzY-15" value="Boundary" style="rounded=0;whiteSpace=wrap;html=1;fillColor=#f8cecc;strokeColor=#b85450;glass=1;shadow=1;" vertex="1" parent="1">
          <mxGeometry x="290" y="540" width="160" height="20" as="geometry" />
        </mxCell>
        <mxCell id="k2vN7xZGg0Ul05sA-hzY-16" value="Multipart 1&lt;br&gt;&lt;br&gt;&lt;br&gt;&lt;br&gt;&lt;br&gt;&lt;br&gt;&lt;div&gt;&lt;br&gt;&lt;/div&gt;&lt;br&gt;&lt;div&gt;&lt;br&gt;&lt;/div&gt;&lt;div&gt;&lt;br&gt;&lt;/div&gt;" style="rounded=0;whiteSpace=wrap;html=1;fillColor=#d5e8d4;strokeColor=#82b366;shadow=1;" vertex="1" parent="1">
          <mxGeometry x="290" y="370" width="160" height="160" as="geometry" />
        </mxCell>
        <mxCell id="k2vN7xZGg0Ul05sA-hzY-39" style="edgeStyle=orthogonalEdgeStyle;rounded=0;orthogonalLoop=1;jettySize=auto;html=1;exitX=1;exitY=0.5;exitDx=0;exitDy=0;entryX=0;entryY=0.5;entryDx=0;entryDy=0;" edge="1" parent="1" source="k2vN7xZGg0Ul05sA-hzY-17" target="k2vN7xZGg0Ul05sA-hzY-38">
          <mxGeometry relative="1" as="geometry" />
        </mxCell>
        <mxCell id="k2vN7xZGg0Ul05sA-hzY-17" value="Headers" style="rounded=0;whiteSpace=wrap;html=1;fillColor=#f5f5f5;fontColor=#333333;strokeColor=#666666;glass=1;" vertex="1" parent="1">
          <mxGeometry x="300" y="400" width="140" height="30" as="geometry" />
        </mxCell>
        <mxCell id="k2vN7xZGg0Ul05sA-hzY-37" style="edgeStyle=orthogonalEdgeStyle;rounded=0;orthogonalLoop=1;jettySize=auto;html=1;exitX=1;exitY=0.5;exitDx=0;exitDy=0;entryX=0;entryY=0.5;entryDx=0;entryDy=0;" edge="1" parent="1" source="k2vN7xZGg0Ul05sA-hzY-18" target="k2vN7xZGg0Ul05sA-hzY-36">
          <mxGeometry relative="1" as="geometry" />
        </mxCell>
        <mxCell id="k2vN7xZGg0Ul05sA-hzY-18" value="Body" style="rounded=0;whiteSpace=wrap;html=1;fillColor=#d5e8d4;strokeColor=#82b366;glass=1;" vertex="1" parent="1">
          <mxGeometry x="300" y="440" width="140" height="80" as="geometry" />
        </mxCell>
        <mxCell id="k2vN7xZGg0Ul05sA-hzY-21" value="&lt;pre style=&quot;font-size: 10px;&quot;&gt;&lt;code style=&quot;font-size: 10px;&quot;&gt;POST /url/path HTTP/1.1&lt;br style=&quot;font-size: 10px;&quot;&gt;&lt;/code&gt;&lt;code style=&quot;font-size: 10px;&quot;&gt;Content-Length: 1325&lt;br style=&quot;font-size: 10px;&quot;&gt;Content-Type: multipart/form-data; &lt;br&gt;  boundary=----boundary-characters&lt;/code&gt;&lt;/pre&gt;" style="rounded=0;whiteSpace=wrap;html=1;align=left;fontSize=10;spacingLeft=4;" vertex="1" parent="1">
          <mxGeometry x="480" y="70" width="300" height="60" as="geometry" />
        </mxCell>
        <mxCell id="k2vN7xZGg0Ul05sA-hzY-25" value="&lt;pre style=&quot;font-size: 10px;&quot;&gt;&lt;code style=&quot;font-size: 10px;&quot;&gt;----boundary-characters&lt;/code&gt;&lt;/pre&gt;" style="rounded=0;whiteSpace=wrap;html=1;align=left;fontSize=10;spacingLeft=4;" vertex="1" parent="1">
          <mxGeometry x="480" y="140" width="300" height="20" as="geometry" />
        </mxCell>
        <mxCell id="k2vN7xZGg0Ul05sA-hzY-26" value="&lt;pre style=&quot;font-size: 10px;&quot;&gt;&lt;code style=&quot;font-size: 10px;&quot;&gt;----boundary-characters&lt;/code&gt;&lt;/pre&gt;" style="rounded=0;whiteSpace=wrap;html=1;align=left;fontSize=10;spacingLeft=4;" vertex="1" parent="1">
          <mxGeometry x="480" y="340" width="300" height="20" as="geometry" />
        </mxCell>
        <mxCell id="k2vN7xZGg0Ul05sA-hzY-29" value="&lt;pre style=&quot;font-size: 10px;&quot;&gt;&lt;code style=&quot;font-size: 10px;&quot;&gt;----boundary-characters&lt;/code&gt;&lt;/pre&gt;" style="rounded=0;whiteSpace=wrap;html=1;align=left;fontSize=10;spacingLeft=4;" vertex="1" parent="1">
          <mxGeometry x="480" y="540" width="300" height="20" as="geometry" />
        </mxCell>
        <mxCell id="k2vN7xZGg0Ul05sA-hzY-32" value="&lt;pre&gt;&lt;code&gt;Content-Disposition: form-data;&lt;br&gt;  name=&quot;uploadedfile&quot;; filename=&quot;hello.png&quot;&lt;br&gt;Content-Type: image/png&lt;/code&gt;&lt;/pre&gt;" style="rounded=0;whiteSpace=wrap;html=1;align=left;fontSize=10;spacingLeft=4;" vertex="1" parent="1">
          <mxGeometry x="480" y="192.5" width="300" height="45" as="geometry" />
        </mxCell>
        <mxCell id="k2vN7xZGg0Ul05sA-hzY-34" value="Binary data for hello.png" style="rounded=0;whiteSpace=wrap;html=1;align=left;fontSize=10;spacingLeft=4;" vertex="1" parent="1">
          <mxGeometry x="480" y="257.5" width="300" height="45" as="geometry" />
        </mxCell>
        <mxCell id="k2vN7xZGg0Ul05sA-hzY-36" value="Binary text for textfield1" style="rounded=0;whiteSpace=wrap;html=1;align=left;fontSize=10;spacingLeft=4;" vertex="1" parent="1">
          <mxGeometry x="480" y="457.5" width="300" height="45" as="geometry" />
        </mxCell>
        <mxCell id="k2vN7xZGg0Ul05sA-hzY-38" value="&lt;pre&gt;&lt;code&gt;Content-Disposition: form-data;&lt;br&gt;  name=&quot;textfield1&quot;; &lt;br&gt;Content-Type: text/plain&lt;/code&gt;&lt;/pre&gt;" style="rounded=0;whiteSpace=wrap;html=1;align=left;fontSize=10;spacingLeft=4;" vertex="1" parent="1">
          <mxGeometry x="480" y="392.5" width="300" height="45" as="geometry" />
        </mxCell>
      </root>
    </mxGraphModel>
  </diagram>
</mxfile>
